<svg xmlns="http://www.w3.org/2000/svg" viewBox="0 0 500 500"><g id="freepik--background-simple--inject-17"><path d="M471,160.7a225.58,225.58,0,0,0-9.61-22.59C429.69,73.63,370.69,29.91,298.06,18.42q-4.69-.75-9.42-1.31C229.36,10,146.37,18.87,112.53,73.67c-17.57,28.46-10.36,64.35-29,92C59.4,201.56,28.38,219.49,22.64,275.5c-4.23,41.21-2.26,85.75,26.88,118.62,34.34,38.75,93.27,52.09,143.61,44.65,48.86-7.21,92.6-31.34,135.33-54,40.56-21.51,87-37.13,119.82-70C489.72,273.24,489.69,212.53,471,160.7Z" style="fill:#BA68C8"></path><path d="M471,160.7a225.58,225.58,0,0,0-9.61-22.59C429.69,73.63,370.69,29.91,298.06,18.42q-4.69-.75-9.42-1.31C229.36,10,146.37,18.87,112.53,73.67c-17.57,28.46-10.36,64.35-29,92C59.4,201.56,28.38,219.49,22.64,275.5c-4.23,41.21-2.26,85.75,26.88,118.62,34.34,38.75,93.27,52.09,143.61,44.65,48.86-7.21,92.6-31.34,135.33-54,40.56-21.51,87-37.13,119.82-70C489.72,273.24,489.69,212.53,471,160.7Z" style="fill:#fff;opacity:0.7000000000000001"></path></g><g id="freepik--Floor--inject-17"><ellipse cx="260" cy="470.5" rx="217" ry="13.5" style="fill:#263238"></ellipse></g><g id="freepik--Plants--inject-17"><path d="M137.42,134.87c4,1.73,13.68,1.51,13.69,1.51s-2.09-6.36-2.27-6.74c-2.13-4.46-8.87-11.82-14.36-11.08a6.55,6.55,0,0,0-5.26,8.21C130.13,130.57,134,133.39,137.42,134.87Z" style="fill:#BA68C8"></path><path d="M229.81,152.66c.09.05,1.77-6.46,1.83-6.88.68-4.9-.88-14.76-5.87-17.17a6.56,6.56,0,0,0-8.91,3.95c-1.34,3.67.36,8.18,2.36,11.28C221.58,147.47,229.8,152.65,229.81,152.66Z" style="fill:#BA68C8"></path><path d="M253.77,104.38c-5-.54-10.91,6.3-12.74,10.39-.15.36-2,6.17-1.89,6.17h.11c-.95,1.07-1.95,2.23-3,3.52-1.95,2.4-4.13,5.13-6.31,8.25a106.87,106.87,0,0,0-6.54,10.43,77.69,77.69,0,0,0-5.59,12.58.94.94,0,0,0,0,.16c0-1.47,0-5.58-.08-5.9-.58-4.44-4.3-12.69-9.24-13.6a5.94,5.94,0,0,0-6.85,5.58c-.29,3.53,2.27,7.07,4.77,9.3,2.81,2.51,10.63,5,11.25,5.14A104.72,104.72,0,0,0,214.3,170c-.48,2.68-.88,5.4-1.24,8.13,0-1.27-.05-2.4-.07-2.56-.58-4.45-4.3-12.69-9.23-13.61a5.94,5.94,0,0,0-6.85,5.59c-.29,3.53,2.27,7.06,4.76,9.29s9.16,4.47,10.92,5c-.13,1.05-.27,2.09-.4,3.14-.6,5-1.18,10.06-1.9,15-.25,1.73-.56,3.43-.87,5.13,0-1.13,0-2.09-.06-2.23-.58-4.44-4.3-12.69-9.24-13.6a5.92,5.92,0,0,0-6.84,5.58c-.29,3.53,2.27,7.07,4.76,9.3s8.51,4.25,10.6,4.93c-.37,1.73-.73,3.46-1.16,5.12-.33,1.13-.56,2.23-.94,3.35s-.71,2.21-1.07,3.29c-.75,2.08-1.51,4.22-2.3,6.22-.54,1.4-1.07,2.72-1.61,4,.27-1.72.73-5.1.74-5.39a23.07,23.07,0,0,0-3.09-11.21,7.33,7.33,0,0,0-.09-1.32,5.93,5.93,0,0,0-7.26-5c-4.85,1.29-7.92,9.8-8.15,14.27,0,.27.16,3.15.3,5-.25-1-.47-2.08-.74-3.16-.51-2.14-1.08-4.27-1.68-6.56l-1-3.32c-.31-1.11-.78-2.25-1.17-3.39-1-2.62-2-5.23-3.22-7.84,1.88-.45,8.52-2.14,11.19-4.19s5.47-5.37,5.44-8.91a5.93,5.93,0,0,0-6.41-6.08c-5,.54-9.32,8.49-10.23,12.88-.05.27-.35,3.49-.48,5.27-.71-1.56-1.41-3.12-2.19-4.68-2.22-4.49-4.62-9-7-13.44-.73-1.37-1.44-2.75-2.15-4.12.67-.15,8.61-2,11.59-4.29,2.66-2,5.48-5.37,5.45-8.91a5.94,5.94,0,0,0-6.41-6.08c-5,.54-9.32,8.49-10.23,12.88-.06.33-.48,5-.53,6.15-1.57-3-3.11-6-4.51-9.1a103.17,103.17,0,0,1-4.89-12.65c.31-.07,8.6-2,11.66-4.3,2.66-2,5.47-5.37,5.45-8.92a6,6,0,0,0-6.42-6.08c-5,.55-9.31,8.49-10.22,12.88-.06.29-.38,3.82-.49,5.51l-.29,0a76.7,76.7,0,0,1-2.55-13.4c-.28-2.5-.41-4.89-.48-7.23,1.58-.19,8.79-1.15,11.78-3s6-4.74,6.39-8.26a5.94,5.94,0,0,0-5.7-6.75c-5,0-10.2,7.42-11.58,11.68-.08.23-.58,2.67-.92,4.45,0-1.05-.05-2.14-.05-3.15,0-3.79.25-7.27.49-10.34.15-1.75.31-3.33.49-4.8,1.45-1,7.25-5.1,9-8s3.17-7,1.87-10.28a5.94,5.94,0,0,0-8.18-3.36c-4.46,2.3-5.63,11.28-4.89,15.7.06.38,1.75,6.24,1.82,6.19l.09-.06c-.2,1.41-.39,2.93-.57,4.6-.3,3.07-.62,6.55-.71,10.36a105.77,105.77,0,0,0,.29,12.3,77.67,77.67,0,0,0,2.28,13.58,1,1,0,0,1,.05.16c-.79-1.24-3.11-4.63-3.32-4.88-2.93-3.38-10.58-8.21-15.2-6.25a5.93,5.93,0,0,0-2.63,8.44c1.7,3.1,5.79,4.64,9.1,5.12,3.73.55,11.59-1.73,12.22-1.92a104.05,104.05,0,0,0,4.77,13.19c1.08,2.51,2.24,5,3.44,7.47-.71-1.05-1.36-2-1.47-2.1-2.93-3.39-10.58-8.21-15.2-6.25a5.92,5.92,0,0,0-2.63,8.43c1.7,3.11,5.79,4.64,9.1,5.13s10.1-1.32,11.88-1.83l1.4,2.85c2.28,4.53,4.57,9,6.68,13.54.75,1.58,1.42,3.17,2.1,4.75-.64-.93-1.18-1.71-1.28-1.82-2.93-3.39-10.58-8.21-15.2-6.25a5.93,5.93,0,0,0-2.63,8.44c1.7,3.1,5.79,4.63,9.1,5.12s9.44-1.15,11.56-1.74c.65,1.65,1.3,3.29,1.85,4.92.36,1.11.77,2.16,1.07,3.31l.93,3.33c.51,2.15,1.06,4.36,1.51,6.46.32,1.46.6,2.86.89,4.27-.72-1.59-2.21-4.66-2.36-4.9-2.38-3.8-9.22-9.72-14.08-8.49a5.94,5.94,0,0,0-3.88,7.94c1.22,3.33,5,5.47,8.22,6.45,3.52,1.07,11.33.09,12.3,0,.47,2.33.9,4.6,1.27,6.75,1.3,7.38,2.11,13.59,2.62,18H189c0-.1,0-.19,0-.29-.61-4.42-1.56-10.72-3-18.21-.47-2.37-1-4.89-1.6-7.48a63.94,63.94,0,0,0,6.86-3.22c2.57,2.78,9.15,6,10,6.45-.9,2.2-1.79,4.33-2.67,6.33-3,6.87-5.73,12.49-7.72,16.42h3.73c1.85-3.9,4.21-9.09,6.73-15.26.92-2.24,1.86-4.64,2.8-7.12.94.2,8.67,1.77,12.26,1,3.27-.74,7.22-2.59,8.68-5.81a5.94,5.94,0,0,0-3.27-8.21c-4.76-1.6-12,3.8-14.68,7.41-.16.21-1.6,2.71-2.49,4.3.38-1,.76-2,1.14-3,.75-2.07,1.45-4.16,2.21-6.4q.5-1.65,1-3.33c.36-1.1.59-2.31.9-3.47.64-2.72,1.17-5.5,1.63-8.32,1.81.66,8.29,2.92,11.64,2.68s7.53-1.46,9.46-4.43a5.94,5.94,0,0,0-2-8.61c-4.46-2.3-12.46,1.94-15.64,5.1-.19.2-2.22,2.72-3.3,4.13.26-1.69.54-3.38.75-5.11.62-5,1.09-10,1.58-15.07.15-1.54.32-3.08.48-4.62.64.24,8.28,3.09,12,2.82,3.34-.23,7.52-1.46,9.46-4.43a6,6,0,0,0-2-8.61c-4.46-2.3-12.45,1.94-15.63,5.1-.24.24-3.15,3.88-3.84,4.84.36-3.39.75-6.76,1.26-10.07a104.11,104.11,0,0,1,2.9-13.26c.3.12,8.25,3.12,12.1,2.85,3.34-.23,7.53-1.46,9.46-4.43a5.94,5.94,0,0,0-2-8.61c-4.46-2.3-12.45,1.94-15.63,5.1-.2.21-2.42,3-3.45,4.32l-.25-.13a76.19,76.19,0,0,1,5.26-12.59c1.14-2.23,2.36-4.3,3.59-6.29,1.42.71,8,3.89,11.46,4,3.34.14,7.64-.62,9.89-3.36a5.94,5.94,0,0,0-1-8.78c-4.18-2.77-12.59.56-16.1,3.36-.19.15-2,1.91-3.22,3.2.57-.88,1.14-1.81,1.7-2.65,2.1-3.16,4.21-5.93,6.11-8.36,1.09-1.38,2.1-2.6,3.06-3.73,1.76,0,8.86-.25,12-1.71s6.5-4.07,7.23-7.54A5.94,5.94,0,0,0,253.77,104.38Z" style="fill:#BA68C8"></path><path d="M368.16,200.68c1.63,2.35,7.16,5.6,7.17,5.6s1-4.29,1.06-4.57c.35-3.25-.88-9.72-4.22-11.21a4.33,4.33,0,0,0-5.8,2.79C365.57,195.74,366.78,198.68,368.16,200.68Z" style="fill:#BA68C8"></path><path d="M422.6,236c0,.06,3.23-3,3.41-3.23,2.08-2.51,4.62-8.59,2.66-11.67a4.32,4.32,0,0,0-6.37-.88c-2,1.6-2.64,4.72-2.59,7.15C419.77,230.2,422.6,236,422.6,236Z" style="fill:#BA68C8"></path><path d="M451.09,226.26c-2.88-2.24-9.17-.28-11.87,1.56-.23.16-3.59,3.06-3.53,3.1l.07,0c-1,.3-2.06.63-3.21,1-2.13.73-4.53,1.59-7.07,2.69a77,77,0,0,0-8,3.95,57.17,57.17,0,0,0-8.28,5.66l-.09.08c.58-.9,2.12-3.47,2.21-3.68,1.34-3,2.19-9.51-.51-12a4.32,4.32,0,0,0-6.38.84c-1.53,2.07-1.3,5.24-.61,7.58.78,2.63,4.69,7.13,5,7.49a77.93,77.93,0,0,0-7.26,7.18c-1.32,1.47-2.61,3-3.88,4.56.48-.8.9-1.51.94-1.62,1.35-3,2.2-9.5-.51-12a4.33,4.33,0,0,0-6.38.84c-1.53,2.08-1.3,5.25-.6,7.58s4,6.27,4.83,7.29c-.48.61-1,1.2-1.45,1.8-2.3,2.89-4.58,5.78-6.91,8.55-.81,1-1.66,1.91-2.5,2.84.42-.7.77-1.3.82-1.4,1.34-3,2.19-9.5-.52-12a4.33,4.33,0,0,0-6.38.84c-1.53,2.08-1.29,5.25-.6,7.58s3.64,5.89,4.68,7.11c-.89.93-1.78,1.87-2.68,2.73-.63.57-1.2,1.17-1.86,1.71L376.59,280c-1.26,1-2.55,2-3.8,3-.87.66-1.71,1.27-2.55,1.89.83-1,2.41-2.88,2.52-3.05a16.84,16.84,0,0,0,2.38-8.14,5.6,5.6,0,0,0,.45-.84,4.33,4.33,0,0,0-2.57-5.9c-3.5-1.05-8.66,3-10.52,5.72-.11.16-1.1,2-1.71,3.19.25-.75.51-1.47.76-2.24.5-1.52,1-3.06,1.46-4.71.22-.8.43-1.61.65-2.44s.38-1.69.57-2.54c.41-2,.73-4,1-6.09,1.33.44,6.09,1.93,8.53,1.68s5.44-1.23,6.78-3.43a4.32,4.32,0,0,0-1.65-6.22c-3.29-1.58-9,1.69-11.25,4.06-.14.15-1.56,2-2.32,3.08.16-1.24.32-2.48.44-3.73.33-3.64.56-7.33.81-11,.07-1.12.16-2.25.24-3.37.47.16,6.09,2.06,8.82,1.78,2.43-.24,5.44-1.23,6.78-3.43a4.32,4.32,0,0,0-1.64-6.22c-3.3-1.58-9,1.69-11.26,4.06-.17.18-2.2,2.89-2.69,3.6.19-2.47.39-4.93.7-7.35a76.16,76.16,0,0,1,1.8-9.71c.22.07,6.08,2.08,8.87,1.8,2.43-.25,5.45-1.24,6.79-3.44a4.32,4.32,0,0,0-1.65-6.22c-3.3-1.57-9,1.69-11.26,4.06-.14.16-1.7,2.22-2.41,3.22l-.19-.09a55.58,55.58,0,0,1,3.55-9.27c.78-1.65,1.62-3.19,2.47-4.66,1.05.48,5.88,2.65,8.43,2.67s5.54-.63,7.12-2.67a4.32,4.32,0,0,0-1-6.36c-3.1-1.93-9.15.69-11.64,2.8-.13.12-1.38,1.44-2.27,2.41.39-.66.79-1.35,1.18-2,1.45-2.35,2.93-4.41,4.25-6.22.77-1,1.47-1.94,2.15-2.79,1.28-.06,6.44-.38,8.67-1.51s4.63-3.11,5.08-5.65a4.33,4.33,0,0,0-3.77-5.21c-3.65-.27-7.81,4.84-9,7.85-.11.27-1.31,4.54-1.24,4.54h.08c-.66.8-1.37,1.67-2.11,2.63-1.37,1.79-2.9,3.83-4.41,6.15a77.39,77.39,0,0,0-4.53,7.73,56.34,56.34,0,0,0-3.78,9.29l0,.11c0-1.07-.15-4.06-.19-4.29-.52-3.22-3.42-9.14-7-9.69a4.31,4.31,0,0,0-4.85,4.22c-.13,2.58,1.81,5.09,3.67,6.66,2.11,1.76,7.85,3.36,8.31,3.48a75.68,75.68,0,0,0-2.1,10c-.29,2-.51,4-.72,5.94,0-.92-.09-1.75-.1-1.86-.52-3.22-3.42-9.14-7-9.69a4.32,4.32,0,0,0-4.86,4.21c-.13,2.58,1.81,5.09,3.68,6.66s6.76,3.05,8.05,3.42c-.07.76-.15,1.53-.21,2.29-.33,3.68-.64,7.35-1.05,11-.14,1.26-.33,2.5-.52,3.75,0-.83-.07-1.52-.09-1.62-.52-3.22-3.42-9.14-7-9.69a4.31,4.31,0,0,0-4.85,4.22c-.14,2.57,1.81,5.09,3.67,6.65s6.29,2.9,7.83,3.35c-.23,1.27-.46,2.54-.74,3.75-.2.83-.35,1.64-.6,2.46l-.7,2.42c-.5,1.53-1,3.11-1.54,4.58-.36,1-.72,2-1.08,3,.16-1.26.42-3.73.42-3.94,0-3.26-2-9.55-5.48-10.65a4.33,4.33,0,0,0-5.44,3.44c-.52,2.52,1,5.3,2.63,7.13,1.77,2,7,4.39,7.63,4.69-.61,1.62-1.21,3.19-1.8,4.67-2,5.07-3.89,9.22-5.25,12.12l2.11,1.3.09-.2c1.31-3,3.13-7.23,5.07-12.44.62-1.65,1.25-3.42,1.88-5.24a45.6,45.6,0,0,0,5.48.62c.53,2.71,3.36,7.24,3.73,7.83-1.4,1-2.77,2-4.08,2.9-4.48,3.12-8.33,5.54-11.06,7.21l2.31,1.43c2.63-1.7,6.08-4,10-6.87,1.42-1,2.92-2.17,4.45-3.34.51.48,4.69,4.41,7.23,5.28,2.31.79,5.46,1.16,7.6-.28a4.31,4.31,0,0,0,1.11-6.33c-2.33-2.81-8.9-2.24-11.92-1-.18.07-2,1.07-3.19,1.71.62-.48,1.23-.94,1.87-1.45,1.26-1,2.49-2,3.82-3.11l1.88-1.68c.64-.55,1.25-1.21,1.89-1.81,1.44-1.44,2.82-3,4.19-4.53.87,1.11,4,5,6.19,6.11s5.22,2,7.55.88a4.34,4.34,0,0,0,2.06-6.1c-1.88-3.13-8.46-3.56-11.64-2.82-.19,0-2.41.84-3.62,1.3.81-.95,1.63-1.89,2.42-2.88,2.28-2.85,4.51-5.8,6.74-8.73l2.07-2.68c.3.4,3.95,5.08,6.37,6.35,2.16,1.14,5.22,2,7.56.88a4.33,4.33,0,0,0,2-6.1c-1.88-3.13-8.45-3.56-11.63-2.82-.24.06-3.43,1.2-4.23,1.53,1.52-2,3.05-3.91,4.64-5.76a77.14,77.14,0,0,1,6.86-7.1c.14.19,3.92,5.09,6.41,6.4,2.16,1.13,5.22,2,7.55.87a4.31,4.31,0,0,0,2.06-6.09c-1.88-3.14-8.45-3.57-11.63-2.83-.21.05-2.64.92-3.79,1.36l-.11-.18a55.59,55.59,0,0,1,8.08-5.78c1.56-1,3.1-1.76,4.63-2.53.61,1,3.45,5.46,5.55,6.88s5,2.54,7.41,1.71a4.33,4.33,0,0,0,2.72-5.84c-1.53-3.32-8-4.47-11.25-4.08-.18,0-1.95.44-3.23.75.69-.33,1.4-.69,2.07-1,2.51-1.16,4.88-2.06,7-2.84,1.2-.44,2.3-.81,3.33-1.14,1.1.65,5.58,3.24,8.06,3.52s5.58,0,7.36-1.91A4.32,4.32,0,0,0,451.09,226.26Z" style="fill:#BA68C8"></path><path d="M137.69,310.79c2.94.81,9.68-.31,9.69-.32s-2.1-4.21-2.26-4.46c-1.94-2.9-7.37-7.35-11.11-6.28a4.61,4.61,0,0,0-2.84,6.25C132.19,308.53,135.18,310.1,137.69,310.79Z" style="fill:#BA68C8"></path><path d="M206.33,302.41c.06,0,.58-4.67.58-5,0-3.48-2.09-10.19-5.81-11.36a4.61,4.61,0,0,0-5.81,3.64c-.56,2.69,1.07,5.66,2.78,7.61C200.08,299.63,206.33,302.41,206.33,302.41Z" style="fill:#BA68C8"></path><path d="M223,275c-3.9.15-7.69,6-8.64,9.4-.08.29-.84,5-.77,4.95l.08,0c-.6.93-1.24,1.93-1.92,3-1.23,2.06-2.61,4.4-3.93,7a80.33,80.33,0,0,0-3.87,8.73,59.84,59.84,0,0,0-2.9,10.29s0,.08,0,.12c-.14-1.13-.65-4.28-.72-4.52-.93-3.35-4.7-9.27-8.6-9.42a4.61,4.61,0,0,0-4.64,5.05c.17,2.74,2.53,5.17,4.69,6.61,2.44,1.62,8.72,2.62,9.21,2.7a82.82,82.82,0,0,0-1,10.83c-.07,2.12-.08,4.25-.05,6.39-.16-1-.31-1.84-.34-2-.93-3.35-4.71-9.28-8.6-9.43a4.61,4.61,0,0,0-4.64,5.05c.17,2.74,2.52,5.17,4.69,6.61s7.52,2.42,8.94,2.66c0,.82,0,1.64,0,2.46.1,3.93.21,7.86.2,11.71,0,1.36-.05,2.7-.1,4-.14-.86-.26-1.59-.29-1.7-.94-3.35-4.71-9.27-8.6-9.42a4.61,4.61,0,0,0-4.64,5.05c.17,2.74,2.52,5.17,4.69,6.61s7,2.32,8.68,2.61c-.09,1.37-.17,2.74-.32,4.06-.12.9-.18,1.78-.35,2.68l-.45,2.65c-.35,1.67-.7,3.4-1.09,5-.25,1.13-.52,2.21-.78,3.29,0-1.35,0-4,0-4.22a17.92,17.92,0,0,0-3.62-8.27,5.55,5.55,0,0,0-.21-1,4.61,4.61,0,0,0-6.13-3.07c-3.59,1.53-5,8.41-4.69,11.87,0,.2.48,2.4.78,3.78-.3-.79-.59-1.55-.91-2.35-.63-1.59-1.3-3.16-2-4.85L179,367.61c-.36-.82-.85-1.64-1.28-2.48-1-1.9-2.16-3.79-3.34-5.66,1.39-.55,6.31-2.59,8.13-4.46s3.6-4.73,3.19-7.45a4.6,4.6,0,0,0-5.6-3.95c-3.77,1-6.21,7.55-6.42,11,0,.22.11,2.72.21,4.1-.72-1.12-1.43-2.24-2.2-3.35-2.21-3.2-4.54-6.38-6.86-9.55-.71-1-1.41-1.95-2.11-2.93.5-.19,6.39-2.48,8.43-4.57,1.82-1.86,3.61-4.73,3.2-7.45a4.61,4.61,0,0,0-5.6-4c-3.77,1-6.22,7.55-6.43,11,0,.26.18,3.87.27,4.79-1.54-2.15-3.05-4.31-4.46-6.49a81,81,0,0,1-5.17-9.18c.23-.09,6.4-2.45,8.49-4.6,1.81-1.85,3.6-4.73,3.19-7.44a4.6,4.6,0,0,0-5.6-4c-3.77,1-6.21,7.55-6.42,11,0,.23.13,3,.23,4.28l-.22.06a59.11,59.11,0,0,1-3.44-10c-.5-1.89-.86-3.71-1.17-5.5,1.19-.32,6.62-1.86,8.72-3.58s4.1-4.31,4-7.05a4.6,4.6,0,0,0-5.13-4.55c-3.85.55-7,6.82-7.6,10.25,0,.19-.14,2.12-.21,3.52-.13-.8-.28-1.64-.39-2.41-.41-2.92-.61-5.61-.77-8-.08-1.36-.12-2.59-.15-3.74,1-.93,5-4.72,6.05-7.17s1.66-5.71.3-8.1a4.61,4.61,0,0,0-6.65-1.67c-3.17,2.26-3.08,9.28-2,12.6.09.28,2,4.6,2.08,4.55l.07-.06c0,1.11,0,2.3.07,3.6.11,2.4.25,5.1.6,8a82.05,82.05,0,0,0,1.59,9.42,59.8,59.8,0,0,0,3.25,10.17l.06.12c-.74-.87-2.9-3.22-3.09-3.38-2.63-2.27-9-5.13-12.37-3.11a4.61,4.61,0,0,0-1.09,6.77c1.65,2.19,5,2.92,7.56,2.92,2.93,0,8.71-2.61,9.17-2.82a80.32,80.32,0,0,0,5.13,9.6c1.1,1.8,2.28,3.58,3.47,5.36-.66-.73-1.27-1.38-1.36-1.46-2.63-2.28-9-5.13-12.37-3.12a4.62,4.62,0,0,0-1.09,6.78c1.65,2.19,5,2.92,7.56,2.92s7.61-2.13,8.92-2.71l1.4,2c2.25,3.23,4.51,6.44,6.63,9.66.74,1.14,1.44,2.28,2.14,3.42-.6-.64-1.1-1.18-1.19-1.25-2.62-2.28-9-5.14-12.37-3.12a4.61,4.61,0,0,0-1.09,6.77c1.66,2.2,5,2.92,7.56,2.93s7.13-1.93,8.69-2.62c.68,1.2,1.36,2.39,2,3.57.39.82.83,1.58,1.18,2.43l1.09,2.46c.63,1.59,1.29,3.22,1.87,4.79.41,1.09.78,2.13,1.16,3.18-.73-1.14-2.21-3.33-2.35-3.5-2.26-2.65-8.16-6.45-11.76-5a4.61,4.61,0,0,0-2.1,6.53c1.3,2.42,4.46,3.64,7,4,2.82.43,8.71-1.19,9.44-1.39.62,1.73,1.2,3.43,1.73,5,1.81,5.53,3.12,10.2,4,13.5l2.62-.37a1.42,1.42,0,0,0-.07-.22c-.95-3.33-2.38-8.06-4.36-13.65-.62-1.77-1.32-3.65-2.05-5.57a48.41,48.41,0,0,0,4.91-3.24c2.28,1.86,7.7,3.63,8.4,3.85-.44,1.79-.89,3.53-1.34,5.16-1.54,5.61-3,10.23-4.12,13.47l2.87-.42c1-3.19,2.22-7.44,3.48-12.46.46-1.82.91-3.77,1.36-5.78.74.05,6.85.4,9.52-.62,2.43-.93,5.26-2.79,6-5.43a4.61,4.61,0,0,0-3.43-5.94c-3.83-.7-8.81,4.25-10.45,7.32-.1.18-.93,2.26-1.44,3.58.18-.82.36-1.62.54-2.47.35-1.67.66-3.35,1-5.16.13-.88.26-1.76.39-2.66s.2-1.84.31-2.77c.19-2.15.28-4.35.33-6.57,1.47.31,6.69,1.32,9.24.77s5.62-2,6.77-4.45a4.61,4.61,0,0,0-2.48-6.39c-3.68-1.27-9.36,2.87-11.44,5.65-.14.17-1.41,2.33-2.09,3.54,0-1.34,0-2.66,0-4-.08-3.89-.28-7.83-.46-11.75-.06-1.21-.1-2.4-.14-3.6.52.11,6.7,1.45,9.55.83,2.54-.55,5.62-2,6.78-4.45a4.61,4.61,0,0,0-2.49-6.39c-3.68-1.28-9.35,2.87-11.44,5.65-.16.21-2,3.32-2.41,4.14-.1-2.65-.18-5.28-.15-7.88a81.57,81.57,0,0,1,.76-10.5c.24.05,6.68,1.48,9.61.84,2.54-.55,5.62-1.95,6.77-4.45a4.61,4.61,0,0,0-2.48-6.39c-3.68-1.27-9.36,2.87-11.44,5.65-.14.18-1.54,2.56-2.18,3.7l-.21-.07a59.8,59.8,0,0,1,2.65-10.25c.63-1.84,1.34-3.57,2.06-5.23,1.17.39,6.55,2.1,9.25,1.82s5.8-1.32,7.22-3.67a4.61,4.61,0,0,0-1.77-6.63c-3.52-1.67-9.61,1.82-12,4.36-.13.14-1.29,1.68-2.12,2.82.34-.75.67-1.52,1-2.23,1.26-2.66,2.58-5,3.77-7.1.68-1.17,1.32-2.22,1.93-3.2,1.35-.22,6.78-1.17,9-2.64s4.53-3.85,4.71-6.59A4.61,4.61,0,0,0,223,275Z" style="fill:#BA68C8"></path></g><g id="freepik--Graphics--inject-17"><g style="opacity:0.2"><path d="M382.12,382.1c0-4.48,2.3-7,6.59-7s6.59,2.49,6.59,7v14.3c0,4.48-2.3,7-6.59,7s-6.59-2.49-6.59-7Zm4.35,14.61c0,1.93.81,2.74,2.24,2.74s2.24-.81,2.24-2.74V381.79c0-1.93-.87-2.74-2.24-2.74s-2.24.81-2.24,2.74Zm19.4-21.27h4.05L392.75,419h-4ZM403.7,398c0-4.48,2.3-7,6.59-7s6.59,2.49,6.59,7v14.3c0,4.48-2.3,7-6.59,7s-6.59-2.49-6.59-7Zm4.35,14.61c0,1.93.81,2.74,2.24,2.74s2.24-.81,2.24-2.74V397.71c0-1.93-.87-2.74-2.24-2.74s-2.24.81-2.24,2.74Z" style="fill:none;stroke:#000;stroke-miterlimit:10"></path></g><g style="opacity:0.2"><path d="M395.43,305c0-6.35,3.26-9.88,9.34-9.88s9.35,3.53,9.35,9.88v20.27c0,6.35-3.26,9.88-9.35,9.88s-9.34-3.53-9.34-9.88Zm6.17,20.71c0,2.74,1.15,3.88,3.17,3.88s3.18-1.14,3.18-3.88V304.56c0-2.74-1.24-3.88-3.18-3.88s-3.17,1.14-3.17,3.88Zm27.5-30.15h5.73L410.5,357.27h-5.73Zm-3.08,32c0-6.34,3.26-9.87,9.34-9.87s9.35,3.53,9.35,9.87v20.28c0,6.35-3.27,9.87-9.35,9.87s-9.34-3.52-9.34-9.87Zm6.17,20.72c0,2.73,1.15,3.88,3.17,3.88s3.18-1.15,3.18-3.88V327.12c0-2.73-1.24-3.88-3.18-3.88s-3.17,1.15-3.17,3.88Z" style="fill:none;stroke:#000;stroke-miterlimit:10"></path></g><g style="opacity:0.2"><path d="M73.14,82.92c0-4.36,2.24-6.79,6.42-6.79S86,78.56,86,82.92V96.85c0,4.36-2.24,6.78-6.42,6.78s-6.42-2.42-6.42-6.78Zm4.24,14.23c0,1.88.79,2.67,2.18,2.67s2.18-.79,2.18-2.67V82.61c0-1.87-.85-2.66-2.18-2.66s-2.18.79-2.18,2.66Zm18.9-20.72h3.94L83.5,118.84H79.56Zm-2.12,22c0-4.36,2.24-6.78,6.42-6.78S107,94.06,107,98.42v13.94c0,4.36-2.24,6.78-6.42,6.78s-6.42-2.42-6.42-6.78Zm4.24,14.24c0,1.88.78,2.66,2.18,2.66s2.18-.78,2.18-2.66V98.12c0-1.88-.85-2.66-2.18-2.66s-2.18.78-2.18,2.66Z" style="fill:none;stroke:#000;stroke-miterlimit:10"></path></g><g style="opacity:0.2"><path d="M264.56,40.28c0-4.36,2.24-6.79,6.42-6.79s6.42,2.43,6.42,6.79V54.21c0,4.36-2.24,6.78-6.42,6.78s-6.42-2.42-6.42-6.78Zm4.24,14.23c0,1.88.79,2.67,2.18,2.67s2.18-.79,2.18-2.67V40c0-1.87-.85-2.66-2.18-2.66s-2.18.79-2.18,2.66Zm18.9-20.72h3.94L274.92,76.2H271Zm-2.12,22c0-4.36,2.24-6.78,6.42-6.78s6.42,2.42,6.42,6.78V69.72c0,4.36-2.24,6.78-6.42,6.78s-6.42-2.42-6.42-6.78ZM289.82,70c0,1.88.79,2.66,2.18,2.66s2.18-.78,2.18-2.66V55.48c0-1.88-.85-2.66-2.18-2.66s-2.18.78-2.18,2.66Z" style="fill:none;stroke:#000;stroke-miterlimit:10"></path></g><g style="opacity:0.2"><path d="M428.14,139c0-2.3,1.18-3.58,3.38-3.58s3.39,1.28,3.39,3.58v7.35c0,2.3-1.18,3.58-3.39,3.58s-3.38-1.28-3.38-3.58Zm2.23,7.51c0,1,.42,1.4,1.15,1.4s1.16-.41,1.16-1.4v-7.67c0-1-.45-1.41-1.16-1.41s-1.15.42-1.15,1.41Zm10-10.93h2.08l-8.82,22.37h-2.08Zm-1.11,11.6c0-2.3,1.18-3.58,3.38-3.58s3.39,1.28,3.39,3.58v7.35c0,2.3-1.18,3.58-3.39,3.58s-3.38-1.28-3.38-3.58Zm2.23,7.51c0,1,.42,1.4,1.15,1.4s1.15-.41,1.15-1.4V147c0-1-.44-1.41-1.15-1.41s-1.15.42-1.15,1.41Z" style="fill:none;stroke:#000;stroke-miterlimit:10"></path></g><g style="opacity:0.2"><path d="M406.43,128.07v-3.55h6.14v3.55c5.33,1.09,8.06,5.19,8.06,11.67v1.51h-7.1v-2c0-3.42-1.37-4.71-3.76-4.71s-3.75,1.29-3.75,4.71c0,9.82,14.67,10.3,14.67,23.95,0,6.49-2.79,10.65-8.12,11.74v3.48h-6.14V175c-5.39-1.09-8.12-5.25-8.12-11.74V160h7.1v3.75c0,3.41,1.5,4.64,3.89,4.64s3.89-1.23,3.89-4.64c0-9.83-14.68-10.31-14.68-24C398.51,133.33,401.17,129.23,406.43,128.07Z" style="fill:none;stroke:#000;stroke-miterlimit:10"></path></g><g style="opacity:0.2"><path d="M54.35,168.9v-6.38h11v6.38c9.56,2,14.46,9.31,14.46,20.95v2.7H67.1V189c0-6.13-2.46-8.46-6.75-8.46s-6.74,2.33-6.74,8.46c0,17.65,26.35,18.5,26.35,43,0,11.64-5,19.12-14.58,21.08v6.25h-11V253.1c-9.68-2-14.59-9.44-14.59-21.08v-5.89H52.51v6.74c0,6.13,2.7,8.34,7,8.34s7-2.21,7-8.34c0-17.65-26.35-18.5-26.35-43C40.13,178.33,44.91,171,54.35,168.9Z" style="fill:none;stroke:#000;stroke-miterlimit:10"></path></g><g style="opacity:0.2"><path d="M56.83,327.2v-2.42H61v2.42c3.62.74,5.47,3.52,5.47,7.93v1H61.66v-1.34c0-2.32-.93-3.21-2.56-3.21s-2.55.89-2.55,3.21c0,6.68,10,7,10,16.28,0,4.41-1.9,7.24-5.52,8v2.36H56.83v-2.36c-3.67-.75-5.52-3.58-5.52-8v-2.22h4.82v2.55c0,2.32,1,3.15,2.65,3.15s2.64-.83,2.64-3.15c0-6.68-10-7-10-16.29C51.45,330.77,53.26,328,56.83,327.2Z" style="fill:none;stroke:#000;stroke-miterlimit:10"></path></g><g style="opacity:0.2"><path d="M158.41,392.78v-2.42h4.17v2.42c3.62.74,5.48,3.52,5.48,7.93v1h-4.83v-1.34c0-2.32-.93-3.21-2.55-3.21s-2.55.89-2.55,3.21c0,6.68,10,7,10,16.28,0,4.41-1.9,7.24-5.52,8V427h-4.17v-2.36c-3.67-.75-5.53-3.58-5.53-8v-2.22h4.83V417c0,2.32,1,3.16,2.65,3.16S163,419.32,163,417c0-6.68-10-7-10-16.29C153,396.35,154.83,393.57,158.41,392.78Z" style="fill:none;stroke:#000;stroke-miterlimit:10"></path></g><g style="opacity:0.2"><path d="M161.3,47.1V44.69h4.18V47.1c3.62.74,5.47,3.53,5.47,7.94v1h-4.82V54.71c0-2.32-.93-3.2-2.55-3.2s-2.56.88-2.56,3.2c0,6.68,10,7,10,16.29,0,4.41-1.9,7.24-5.52,8v2.37H161.3V79c-3.66-.74-5.52-3.57-5.52-8V68.77h4.83v2.56c0,2.32,1,3.15,2.64,3.15s2.65-.83,2.65-3.15c0-6.69-10-7-10-16.29C155.92,50.67,157.73,47.89,161.3,47.1Z" style="fill:none;stroke:#000;stroke-miterlimit:10"></path></g></g><g id="freepik--Device--inject-17"><rect x="183.14" y="65.05" width="189.09" height="369" rx="14.52" style="fill:#263238"></rect><path d="M283.43,422.05a6.43,6.43,0,1,0-6.43,6.42A6.43,6.43,0,0,0,283.43,422.05Z" style="fill:none;stroke:#fff;stroke-linecap:round;stroke-linejoin:round"></path><path d="M302.16,65.05H197.66a14.52,14.52,0,0,0-14.52,14.52v289Z" style="fill:#fff;opacity:0.30000000000000004"></path><rect x="191.55" y="90.11" width="172.27" height="322.04" style="fill:#fff;stroke:#263238;stroke-linecap:round;stroke-linejoin:round"></rect><rect x="343.67" y="93.45" width="14.28" height="7.83" style="fill:none;stroke:#263238;stroke-linecap:round;stroke-linejoin:round;stroke-width:0.821067px"></rect><rect x="343.67" y="93.45" width="11.14" height="7.83" style="fill:#263238;stroke:#263238;stroke-linecap:round;stroke-linejoin:round;stroke-width:0.725073px"></rect><rect x="357.93" y="95.64" width="2.01" height="3.45" style="fill:#263238;stroke:#263238;stroke-linecap:round;stroke-linejoin:round;stroke-width:0.725073px"></rect><rect x="195.43" y="95.88" width="2.62" height="4.49" style="fill:#263238;stroke:#263238;stroke-linecap:round;stroke-linejoin:round;stroke-width:0.8830859999999999px"></rect><rect x="199.54" y="94.3" width="2.62" height="6.07" style="fill:#263238;stroke:#263238;stroke-linecap:round;stroke-linejoin:round;stroke-width:0.8830859999999999px"></rect><rect x="203.66" y="92.44" width="2.62" height="7.93" style="fill:#263238;stroke:#263238;stroke-linecap:round;stroke-linejoin:round;stroke-width:0.8830859999999999px"></rect><rect x="194.33" y="105.64" width="165.42" height="12.44" style="fill:#BA68C8"></rect><path d="M213.43,213.37V136.43a8.22,8.22,0,0,1,8.22-8.22H332.43a8.22,8.22,0,0,1,8.22,8.22V163" style="fill:none;stroke:#263238;stroke-linecap:round;stroke-miterlimit:10"></path><line x1="213.43" y1="228.89" x2="213.43" y2="219.84" style="fill:none;stroke:#263238;stroke-linecap:round;stroke-miterlimit:10"></line><polyline points="340.65 172 340.65 370.02 213.43 370.02 213.43 239.23" style="fill:none;stroke:#263238;stroke-linecap:round;stroke-miterlimit:10"></polyline><path d="M240.63,298.75s-.56-44,3.9-59.09a31.35,31.35,0,0,1,29.55-22.3c11.15,0,31.77,8.92,37.35,30.66s1.11,49.06.56,51.85-6.69,10.59-7.81-4.46,1.12-50.17-3.34-60.21-17.28-17.28-29-14.49S254,228.51,251.78,243s2.23,47.94-.56,55.18S241.75,308.79,240.63,298.75Z" style="fill:#263238"></path><path d="M201.47,275.76s38.46-3.34,83.62-3.34S351.42,275.2,352,278s-6.13,39-6.13,42.37,0,50.17-1.12,53-6.13,5-8.36,5.57-119.29,1.67-122.64,1.67-6.13-3.34-6.13-6.69,1.67-40.13-1.11-53.51S201.47,275.76,201.47,275.76Z" style="fill:#BA68C8;stroke:#263238;stroke-linecap:round;stroke-linejoin:round"></path><path d="M242.72,294.16s-.56-44,3.9-59.09a31.34,31.34,0,0,1,29.55-22.3c11.15,0,31.77,8.92,37.35,30.66s1.11,49.05.55,51.84-6.69,10.59-7.8-4.46,1.11-50.17-3.34-60.2-17.29-17.28-29-14.5-17.84,7.81-20.07,22.3,2.23,47.94-.56,55.19S243.83,304.19,242.72,294.16Z" style="fill:#BA68C8;stroke:#263238;stroke-linecap:round;stroke-linejoin:round"></path><path d="M212.06,276.32s-2.79,29.54-2.79,40.69-.56,18.4-.56,18.4" style="fill:#BA68C8;stroke:#263238;stroke-linecap:round;stroke-linejoin:round"></path><path d="M342.5,276.88s1.12,29.54,1.12,46.82" style="fill:#BA68C8;stroke:#263238;stroke-linecap:round;stroke-linejoin:round"></path><path d="M240.49,139.12v-2h3.41v2c3,.61,4.48,2.89,4.48,6.5v.83h-3.95v-1.1c0-1.9-.75-2.62-2.08-2.62s-2.09.72-2.09,2.62c0,5.47,8.16,5.73,8.16,13.33,0,3.6-1.56,5.92-4.52,6.53v1.93h-3.41v-1.93c-3-.61-4.52-2.93-4.52-6.53v-1.83h3.95v2.09c0,1.9.83,2.58,2.16,2.58s2.16-.68,2.16-2.58c0-5.47-8.16-5.73-8.16-13.32C236.08,142.05,237.56,139.77,240.49,139.12Z" style="fill:#263238"></path><path d="M250.25,156.82l7.59-18h4.55v18h2v3.79h-2v4.82h-4.1v-4.82h-8Zm8,0v-10l-4.21,10Z" style="fill:#263238"></path><path d="M265.93,145.24c0-4.26,2.24-6.69,6.34-6.69s6.34,2.43,6.34,6.69v13.82c0,4.25-2.24,6.68-6.34,6.68s-6.34-2.43-6.34-6.68Zm4.17,14.08c0,1.9.84,2.62,2.17,2.62s2.16-.72,2.16-2.62V145c0-1.9-.83-2.62-2.16-2.62s-2.17.72-2.17,2.62Z" style="fill:#263238"></path><path d="M285.33,161.41v4h-4v-4Z" style="fill:#263238"></path><path d="M300.63,158.83c0,4.48-2.05,6.91-6.38,6.91-4.1,0-6.22-2.43-6.22-6.68v-.69h4v.95c0,1.9.83,2.62,2.16,2.62,1.48,0,2.31-.72,2.31-3.26v-4.86a4,4,0,0,1-3.87,2.35c-3.07,0-4.63-2.16-4.63-6.07v-4.86c0-4.26,2.24-6.69,6.34-6.69s6.34,2.43,6.34,6.69Zm-4.18-9.08V145c0-1.9-.83-2.58-2.16-2.58s-2.16.68-2.16,2.58v4.78c0,1.9.83,2.62,2.16,2.62S296.45,151.65,296.45,149.75Z" style="fill:#263238"></path><path d="M315.67,158.83c0,4.48-2.05,6.91-6.38,6.91-4.1,0-6.23-2.43-6.23-6.68v-.69H307v.95c0,1.9.84,2.62,2.17,2.62,1.48,0,2.31-.72,2.31-3.26v-4.86a4,4,0,0,1-3.87,2.35c-3.08,0-4.63-2.16-4.63-6.07v-4.86c0-4.26,2.24-6.69,6.34-6.69s6.34,2.43,6.34,6.69Zm-4.18-9.08V145c0-1.9-.83-2.58-2.16-2.58s-2.17.68-2.17,2.58v4.78c0,1.9.84,2.62,2.17,2.62S311.49,151.65,311.49,149.75Z" style="fill:#263238"></path><path d="M252.23,180.06c0-3.57,1.77-5.88,5.34-5.88s5.38,2.31,5.38,5.88v12.09c0,3.54-1.77,5.88-5.38,5.88s-5.34-2.34-5.34-5.88Zm2.57,12.23c0,2.13.9,3.37,2.77,3.37s2.78-1.24,2.78-3.37V179.93c0-2.11-.87-3.38-2.78-3.38s-2.77,1.27-2.77,3.38Z" style="fill:#263238"></path><path d="M267.73,197.8h-2.34V174.42h3.31l5.41,16.9v-16.9h2.31V197.8h-2.71l-6-18.91Z" style="fill:#263238"></path><path d="M279.09,197.8V174.42h2.6v21h6.69v2.37Z" style="fill:#263238"></path><path d="M292.42,189.41l-4.94-15h2.7l3.64,11.49,3.68-11.49H300l-5,15v8.39h-2.57Z" style="fill:#263238"></path><circle cx="325.19" cy="373.04" r="29.85" transform="translate(-142.72 534.2) rotate(-67.93)" style="fill:#263238"></circle><path d="M311.18,353.68c2.62,0,4,1.57,4,4.31v.54H312.6v-.71c0-1.23-.49-1.69-1.34-1.69s-1.35.46-1.35,1.69c0,3.52,5.26,4.18,5.26,9.07,0,2.74-1.37,4.31-4,4.31s-4-1.57-4-4.31v-1.05h2.54v1.22c0,1.22.54,1.67,1.39,1.67s1.4-.45,1.4-1.67c0-3.52-5.26-4.18-5.26-9.07C307.22,355.25,308.57,353.68,311.18,353.68Z" style="fill:#fff"></path><path d="M325.42,371H322.7l-.46-3.11h-3.3l-.47,3.11H316l2.74-17.12h3.94Zm-6.14-5.43h2.59l-1.29-8.66Z" style="fill:#fff"></path><path d="M330.12,367.85l2.05-14h2.47L332,371h-4l-2.64-17.12h2.71Z" style="fill:#fff"></path><path d="M338.58,361.09h3.69v2.45h-3.69v5h4.65V371h-7.34V353.88h7.34v2.45h-4.65Z" style="fill:#fff"></path><path d="M312.81,377.33c-.86,0-1.39.47-1.39,1.69v1.83h-2.55v-1.66c0-2.74,1.37-4.3,4-4.3s4,1.56,4,4.3c0,5.38-5.35,7.39-5.35,10.2a2.36,2.36,0,0,0,0,.37h5.09v2.44h-7.78v-2.1c0-5,5.33-5.87,5.33-10.81C314.2,377.75,313.67,377.33,312.81,377.33Z" style="fill:#fff"></path><path d="M318.34,379.19c0-2.74,1.44-4.3,4.08-4.3s4.09,1.56,4.09,4.3v8.9c0,2.74-1.45,4.31-4.09,4.31s-4.08-1.57-4.08-4.31Zm2.69,9.07c0,1.23.54,1.69,1.39,1.69s1.4-.46,1.4-1.69V379c0-1.22-.54-1.69-1.4-1.69S321,377.8,321,379Z" style="fill:#fff"></path><path d="M328.1,377.7c0-1.76.9-2.74,2.59-2.74s2.59,1,2.59,2.74v5.62c0,1.76-.9,2.74-2.59,2.74s-2.59-1-2.59-2.74Zm1.71,5.75c0,.75.32,1.07.88,1.07s.88-.32.88-1.07v-5.87c0-.76-.34-1.08-.88-1.08s-.88.32-.88,1.08Zm7.63-8.37H339l-6.75,17.12h-1.59Zm-.85,8.88c0-1.76.9-2.74,2.59-2.74s2.59,1,2.59,2.74v5.62c0,1.76-.9,2.74-2.59,2.74s-2.59-1-2.59-2.74Zm1.71,5.75c0,.75.32,1.07.88,1.07s.88-.32.88-1.07v-5.87c0-.76-.34-1.08-.88-1.08s-.88.32-.88,1.08Z" style="fill:#fff"></path></g><g id="freepik--Character--inject-17"><path d="M162,158.73s5,20,1.67,25.37-12.89,7.69-13.73,11.22-1.66,8.74,1.67,10a29.55,29.55,0,0,0,4.57,1.46s-3.32,3.12-9.56,3.32-12.27-.62-14.35-7.9-4.15-7.48-.62-12.68,10.19-15.38,14.76-19.54,8.11-12.47,11.85-13.1S162,158.73,162,158.73Z" style="fill:#263238;stroke:#263238;stroke-linecap:round;stroke-miterlimit:10"></path><path d="M150.36,244.18l-6.24,6-7.9-5.41s-3.53.21-2.49,4.16,2.08,7.49,2.08,7.49L146.2,260l10.4-3.53s-3.12-4.37-4.16-5.41S152.65,244.39,150.36,244.18Z" style="fill:#fff;stroke:#263238;stroke-linecap:round;stroke-miterlimit:10"></path><path d="M141.82,355.63s-2.2,21.13-2.86,23.11-1.54,20-5.94,33.23-13.43,42.26-13.43,42.26a20.77,20.77,0,0,0,4.84,9c4,4.4,13.65,10.78,12.55,11.88s-1.76,1.32-8.8,1.32-10.13-.88-13.43-2.64-4-2.64-7.26-3.3-5.29-2-5.07-4.18,3.08-9.91,4.41-13.21,2.42-10.78,3.08-17.83,1.32-18.48,1.32-18.48,4-22.46,6.6-32.14,3.52-12.33,3.52-15.41-2-10.56-2-10.56Z" style="fill:#fff;stroke:#263238;stroke-linecap:round;stroke-miterlimit:10"></path><polygon points="141.1 358.89 127.66 368.07 127.99 359.22 141.1 358.89" style="fill:#263238;stroke:#263238;stroke-linecap:round;stroke-miterlimit:10"></polygon><path d="M124.43,463.26a21.73,21.73,0,0,1-4.3-7.2,3.43,3.43,0,0,0-3.62,1.91c-1.76,2.87-1.76,4.19-1.76,4.19s-6.81-2.42-10-3.5a48.85,48.85,0,0,0-2.32,7.68c-.22,2.2,1.76,3.52,5.07,4.18s4,1.54,7.26,3.3,6.38,2.64,13.43,2.64,7.7-.22,8.8-1.32S128.4,467.66,124.43,463.26Z" style="fill:#BA68C8;stroke:#263238;stroke-linecap:round;stroke-miterlimit:10"></path><path d="M128.18,476.46c7,0,7.7-.22,8.8-1.32.25-.25-.06-.77-.73-1.48a19.65,19.65,0,0,1-4.77.95c-4.81.36-14.63-1.6-19.44-3.92a37.63,37.63,0,0,0-9.43-3c.55,1.42,2.3,2.35,4.88,2.86,3.3.66,4,1.54,7.26,3.3S121.13,476.46,128.18,476.46Z" style="fill:#fff;stroke:#263238;stroke-linecap:round;stroke-miterlimit:10"></path><path d="M96.48,356.07s8.36,24.21,9,25.53-7.26,14.31-8.36,27.73-4.4,37.86-5.94,44.9-3.3,11.67-1.76,13.65,8.58,10.78,15.18,14.53,7.93,2.64,7.49-1.76-7-13.65-8.37-18.71-.88-9.47-.88-13.21,5.07-20.47,12.11-32.8,11.89-22.45,12.77-29.05-.22-17.17-.22-22.23v-8.58Z" style="fill:#fff;stroke:#263238;stroke-linecap:round;stroke-miterlimit:10"></path><path d="M112.11,480.65c-.44-4.41-7-13.65-8.37-18.71a28.93,28.93,0,0,1-.85-5.41c-.65-.41-1.68-.48-3.33.34-4.4,2.21-5.06,4.85-5.06,4.85l-3.79-5.37c-1.38,5.86-2.65,9.76-1.27,11.53,1.54,2,8.58,10.78,15.18,14.53S112.55,485.05,112.11,480.65Z" style="fill:#BA68C8;stroke:#263238;stroke-linecap:round;stroke-miterlimit:10"></path><path d="M112.18,482.21c-1.7.82-3.31.39-5.49-.46-2.45-.95-13-11.11-17.84-15.9a3.31,3.31,0,0,0,.59,2c1.54,2,8.58,10.78,15.18,14.53C110.35,485.65,112.1,485.25,112.18,482.21Z" style="fill:#fff;stroke:#263238;stroke-linecap:round;stroke-miterlimit:10"></path><path d="M110,150.21s-9.15,12.89-16,25.36-6.24,16.22-2.49,22l15.8-7.48s4.15-19.13,9.77-29.52,14.76-17.26,8.31-15.6S113.36,147.51,110,150.21Z" style="fill:#263238;stroke:#263238;stroke-linecap:round;stroke-miterlimit:10"></path><path d="M102.13,188.46l-.56.24a37.11,37.11,0,0,0-13.79,10.78c-5.82,7.69,1.81,52.82,2,54.9s-1.29,3.71-3.79,9.95-12,19-10.7,37.42c.77,10.57,8.86,35.15,11.56,41.8A138.3,138.3,0,0,0,95,359.15s4,1.45,19.54,3.53a50,50,0,0,0,27.86-4.57s5.2-23.91,5.4-40.54-2.48-30.07-5.39-37.14-3.79-18.95-3.79-18.95l-2.16-14.6s7.49-8.52,8.32-12.89c1.23-6.49.21-9.56-2.5-15.17s-8.31-21.21-8.94-22.25S131.44,196,124,187,102.13,188.46,102.13,188.46Z" style="fill:#BA68C8;stroke:#263238;stroke-linecap:round;stroke-miterlimit:10"></path><path d="M115.69,249.23c.89,0,1.82-.06,2.78-.16" style="fill:none;stroke:#263238;stroke-linecap:round;stroke-miterlimit:10"></path><path d="M99.67,242.71s3.42,4.56,10.88,6" style="fill:none;stroke:#263238;stroke-linecap:round;stroke-miterlimit:10"></path><path d="M125.66,335.45c.27,1.47.47,2.94.59,4.39" style="fill:#BA68C8;stroke:#263238;stroke-linecap:round;stroke-miterlimit:10"></path><path d="M113,305.12s8.76,13.55,12.08,27.63" style="fill:#BA68C8;stroke:#263238;stroke-linecap:round;stroke-miterlimit:10"></path><path d="M122,311.64c.74,1.34,1.43,2.67,2,3.95" style="fill:#BA68C8;stroke:#263238;stroke-linecap:round;stroke-miterlimit:10"></path><path d="M112.47,296.86s4,5.44,7.69,11.57" style="fill:#BA68C8;stroke:#263238;stroke-linecap:round;stroke-miterlimit:10"></path><path d="M92.59,194.42a32.89,32.89,0,0,0-4.81,5.06c-3.52,4.66-2.62,23.59-1.32,38.25,1.57-1,8.23-5.53,10.06-9.56,2.07-4.57,4.57-14.76,3.53-21.62C99.25,201.3,94.7,196.43,92.59,194.42Z" style="fill:#fff;stroke:#263238;stroke-linecap:round;stroke-miterlimit:10"></path><path d="M136.85,209.67c-.16-1.57-3.27-10.12-4.79-14.22-1.18-.92-3.42-2.85-8.1-8.44-7.49-8.94-21.83,1.45-21.83,1.45l-.56.24A50,50,0,0,0,93.91,193c.25.24,2,1.47,2.27,1.74,4,3.84,7.67,13.61,7.67,13.61s6.69,4.73,9.6,6.81,12,12,12,12S137.06,211.75,136.85,209.67Z" style="fill:#fff;stroke:#263238;stroke-linecap:round;stroke-miterlimit:10"></path><path d="M160.34,161s-1,11.64-2.29,14.55-2.7,4-4.15,4.37-2.92,3.53-2.71,5.61,0,5.2-1,5.41l-4.16.83s-7.06,6.24-9.14,6.65-7.28-2.49-9.57-5.61-1.66-3.33-1.66-10.81,6.86-15,12.06-17.88S160.34,161,160.34,161Z" style="fill:#fff;stroke:#263238;stroke-linecap:round;stroke-miterlimit:10"></path><path d="M147.66,180.56s-3.95,1.67-6.65-1.45" style="fill:none;stroke:#263238;stroke-linecap:round;stroke-miterlimit:10"></path><path d="M149.32,176.82a12.88,12.88,0,0,0-8.94-1.25" style="fill:none;stroke:#263238;stroke-linecap:round;stroke-miterlimit:10"></path><path d="M136.85,187.84s.21,3.53,5.61,4.78" style="fill:none;stroke:#263238;stroke-linecap:round;stroke-miterlimit:10"></path><path d="M129.36,168.92s13.31-1.25,22.46-3.95,12.05-3.33,12.05-7.28-7.06-12.68-16-17.25-17.47-4.37-28.9,2.49-22,23.7-16.22,27.45S129.36,168.92,129.36,168.92Z" style="fill:#263238;stroke:#263238;stroke-linecap:round;stroke-miterlimit:10"></path><path d="M142.25,153.33s-13.09,23.08-14.55,28.48.21,14.55,4.57,17.26,6,2.49,6,2.49,0,3.53-5.61,6.24-12.68,3.53-21.62-1.25S99.43,196,98.8,189.5s2.5-17,11.23-26.4" style="fill:#263238;stroke:#263238;stroke-linecap:round;stroke-miterlimit:10"></path><path d="M141.63,265l12.48-1.56a2.66,2.66,0,0,0,1.44-.66l9.21-8.32a.41.41,0,0,0-.33-.7l-27.58,4.17-7.49,8.73Z" style="fill:#263238;stroke:#263238;stroke-linecap:round;stroke-miterlimit:10"></path><path d="M92.37,196s-4.69.22-9.61,9.61c-4.1,7.81-8.7,47.68-9.32,52.25s-1.46,7.9.42,8.32,20,2.7,28.27,2.7,21.41.21,21.41.21,10.19,3.53,11.85,3.53,6.45-2.29,8.32-3.33,5.2-4.78,5.2-4.78-6.66.42-7.28.42-4.78-2.29-5.82-2.91-4.78-2.91-1-2.91,6.24,0,7.28-.63,4.57-2.28,2.07-2.49-2.7,1.25-5.82.42-5.19-.21-7.9.2-5.82,2.71-8.94,3.75-9.77.83-17.67-2.71-12.89-6-12.89-6l7.69-36" style="fill:#fff;stroke:#263238;stroke-linecap:round;stroke-miterlimit:10"></path><path d="M149.53,248.55s-3.33,6.86-1,8.1,2.7-2.7,4.16-7.07,1.87-7.27-.63-6.44a4.84,4.84,0,0,0-3.11,2.91" style="fill:#fff;stroke:#263238;stroke-linecap:round;stroke-miterlimit:10"></path></g></svg>